<?xml version="1.0" encoding="UTF-8"?>
<!DOCTYPE svg PUBLIC "-//W3C//DTD SVG 1.1//EN" "http://www.w3.org/Graphics/SVG/1.1/DTD/svg11.dtd">
<svg xmlns="http://www.w3.org/2000/svg" version="1.1" width="130px" height="120px" style="shape-rendering:geometricPrecision; text-rendering:geometricPrecision; image-rendering:optimizeQuality; fill-rule:evenodd; clip-rule:evenodd" xmlns:xlink="http://www.w3.org/1999/xlink">
<g><path style="opacity:0.961" fill="#215a40" d="M 37.5,4.5 C 35.4855,5.92381 33.1522,6.59047 30.5,6.5C 32.5145,5.07619 34.8478,4.40953 37.5,4.5 Z"/></g>
<g><path style="opacity:1" fill="#3aa273" d="M 37.5,4.5 C 40.7131,4.19 43.7131,4.52333 46.5,5.5C 49.1586,7.16353 51.8252,8.83019 54.5,10.5C 54.9731,11.9063 55.9731,12.573 57.5,12.5C 60.1889,13.0382 62.8556,13.7049 65.5,14.5C 68.1444,13.7049 70.8111,13.0382 73.5,12.5C 75.0269,12.573 76.0269,11.9063 76.5,10.5C 78.7488,9.92022 80.4154,8.58689 81.5,6.5C 86.7968,5.72546 92.1301,5.39212 97.5,5.5C 98.5137,6.67373 99.847,7.3404 101.5,7.5C 110.669,16.0751 114.836,26.7417 114,39.5C 123.689,53.578 122.522,66.578 110.5,78.5C 110.167,79.5 109.5,80.1667 108.5,80.5C 106.973,80.427 105.973,81.0937 105.5,82.5C 103.973,82.427 102.973,83.0937 102.5,84.5C 100.574,86.2927 98.2406,87.2927 95.5,87.5C 92.2154,87.9281 89.2154,88.9281 86.5,90.5C 83.1552,92.217 79.4885,92.8836 75.5,92.5C 74.5,92.5 73.5,92.5 72.5,92.5C 72.9562,99.0183 73.6229,105.518 74.5,112C 74.472,113.07 74.1386,113.903 73.5,114.5C 72.7377,112.738 71.4044,111.738 69.5,111.5C 69.0269,110.094 68.0269,109.427 66.5,109.5C 64.2572,108.142 62.5905,108.808 61.5,111.5C 59.5956,111.738 58.2623,112.738 57.5,114.5C 55.744,113.448 55.0773,111.781 55.5,109.5C 55.1936,106.615 55.5269,103.948 56.5,101.5C 57.1582,100.207 57.4915,98.7067 57.5,97C 57.4313,95.0145 56.7647,93.5145 55.5,92.5C 49.898,92.7643 44.5646,91.7643 39.5,89.5C 38.3646,87.7868 36.698,87.1201 34.5,87.5C 32.1815,87.0075 30.1815,86.0075 28.5,84.5C 28.0269,83.0937 27.0269,82.427 25.5,82.5C 25.0269,81.0937 24.0269,80.427 22.5,80.5C 21.5,80.1667 20.8333,79.5 20.5,78.5C 19.4154,76.4131 17.7488,75.0798 15.5,74.5C 15.573,72.9731 14.9063,71.9731 13.5,71.5C 12.8333,69.5 12.1667,67.5 11.5,65.5C 10.1083,58.7495 10.4416,52.0829 12.5,45.5C 13.9063,45.0269 14.573,44.0269 14.5,42.5C 15.9311,42.1193 16.7645,41.1193 17,39.5C 17.4242,33.4853 17.9242,27.4853 18.5,21.5C 20.6816,18.3069 22.6816,14.9735 24.5,11.5C 27.0892,10.5806 29.0892,8.91395 30.5,6.5C 33.1522,6.59047 35.4855,5.92381 37.5,4.5 Z M 35.5,10.5 C 40.0309,10.1499 44.3642,10.8166 48.5,12.5C 49.9108,14.914 51.9108,16.5806 54.5,17.5C 57.8646,19.0392 61.5313,19.7058 65.5,19.5C 68.3555,19.4975 71.0221,19.1641 73.5,18.5C 75.3797,18.7709 76.713,18.1042 77.5,16.5C 79.7488,15.9202 81.4154,14.5869 82.5,12.5C 87.3642,10.3305 92.3642,9.99712 97.5,11.5C 97.9731,12.9063 98.9731,13.573 100.5,13.5C 100.833,14.5 101.5,15.1667 102.5,15.5C 102.427,17.0269 103.094,18.0269 104.5,18.5C 105.129,21.3973 106.129,24.064 107.5,26.5C 107.334,30.5138 107.501,34.5138 108,38.5C 108.67,41.1739 109.837,43.5073 111.5,45.5C 111.427,47.0269 112.094,48.0269 113.5,48.5C 113.328,49.4916 113.662,50.1583 114.5,50.5C 115.704,55.1561 115.704,59.8228 114.5,64.5C 112.199,67.8101 109.866,71.1434 107.5,74.5C 105.596,74.7376 104.262,75.7376 103.5,77.5C 102.508,77.3284 101.842,77.6618 101.5,78.5C 99.9731,78.427 98.9731,79.0937 98.5,80.5C 95.2558,81.4629 92.2558,82.7962 89.5,84.5C 86.2186,84.4203 83.2186,85.087 80.5,86.5C 79.8333,86.5 79.1667,86.5 78.5,86.5C 76.5328,86.7394 74.6995,86.4061 73,85.5C 72.5034,83.1902 72.3367,80.8568 72.5,78.5C 74.1667,78.5 75.8333,78.5 77.5,78.5C 77.3284,79.4916 77.6618,80.1583 78.5,80.5C 78.8459,82.3628 79.8459,83.1961 81.5,83C 82.3972,80.9129 83.0639,78.7463 83.5,76.5C 84.4916,76.6716 85.1583,76.3382 85.5,75.5C 89.8802,74.1149 91.8802,71.1149 91.5,66.5C 91.5886,62.9332 90.7553,59.5999 89,56.5C 87.3221,54.4468 85.4888,54.1134 83.5,55.5C 82.1326,58.0118 82.466,60.3452 84.5,62.5C 84.7214,65.2788 84.388,67.9455 83.5,70.5C 81.3024,70.8751 79.3024,71.5418 77.5,72.5C 74.8333,72.1667 72.1667,71.8333 69.5,71.5C 68.7505,69.7538 67.4172,68.7538 65.5,68.5C 63.0165,70.3456 60.3499,71.6789 57.5,72.5C 54.8333,72.1667 52.1667,71.8333 49.5,71.5C 48.7095,70.5987 47.7095,69.9321 46.5,69.5C 47.1302,64.8047 47.6302,60.1381 48,55.5C 46.3845,54.1991 44.8845,54.1991 43.5,55.5C 41.461,56.911 40.461,58.911 40.5,61.5C 37.6805,68.8627 40.0139,73.8627 47.5,76.5C 47.7556,79.2403 48.7556,81.5736 50.5,83.5C 51.5,82.1667 52.5,80.8333 53.5,79.5C 55.0453,78.5481 56.712,78.2148 58.5,78.5C 60.1667,85.5 57.5,88.1667 50.5,86.5C 49.4324,85.5655 48.099,85.2322 46.5,85.5C 43.7846,83.9281 40.7846,82.9281 37.5,82.5C 36.791,81.596 35.791,81.2627 34.5,81.5C 33.3406,79.7497 31.674,78.7497 29.5,78.5C 29.1583,77.6618 28.4916,77.3284 27.5,77.5C 26.7377,75.7376 25.4044,74.7376 23.5,74.5C 23.1667,73.5 22.5,72.8333 21.5,72.5C 18.0026,67.9907 16.0026,62.824 15.5,57C 17.5206,50.6437 20.0206,44.477 23,38.5C 21.9551,28.4691 24.7885,19.8025 31.5,12.5C 33.153,12.3404 34.4863,11.6737 35.5,10.5 Z M 38.5,28.5 C 39.8333,31.1667 39.8333,33.8333 38.5,36.5C 37.2521,35.6661 36.5854,34.3328 36.5,32.5C 36.5854,30.6672 37.2521,29.3339 38.5,28.5 Z M 94.5,36.5 C 90.9828,34.3897 90.6495,31.723 93.5,28.5C 94.48,31.0865 94.8134,33.7531 94.5,36.5 Z"/></g>
<g><path style="opacity:0.945" fill="#245d42" d="M 97.5,5.5 C 92.1301,5.39212 86.7968,5.72546 81.5,6.5C 84.356,4.99421 87.5226,4.32755 91,4.5C 93.3608,4.50393 95.5274,4.83726 97.5,5.5 Z"/></g>
<g><path style="opacity:0.227" fill="#0e1b15" d="M 97.5,5.5 C 99.3797,5.22911 100.713,5.89578 101.5,7.5C 99.847,7.3404 98.5137,6.67373 97.5,5.5 Z"/></g>
<g><path style="opacity:0.031" fill="#101e17" d="M 46.5,5.5 C 50.1407,5.65156 52.8073,7.31823 54.5,10.5C 51.8252,8.83019 49.1586,7.16353 46.5,5.5 Z"/></g>
<g><path style="opacity:0.859" fill="#1e4e38" d="M 30.5,6.5 C 29.0892,8.91395 27.0892,10.5806 24.5,11.5C 25.9108,9.08605 27.9108,7.41938 30.5,6.5 Z"/></g>
<g><path style="opacity:0.875" fill="#1f513a" d="M 81.5,6.5 C 80.4154,8.58689 78.7488,9.92022 76.5,10.5C 77.5846,8.41311 79.2512,7.07978 81.5,6.5 Z"/></g>
<g><path style="opacity:0.027" fill="#030905" d="M 54.5,10.5 C 56.0269,10.427 57.0269,11.0937 57.5,12.5C 55.9731,12.573 54.9731,11.9063 54.5,10.5 Z"/></g>
<g><path style="opacity:0.059" fill="#09140e" d="M 35.5,10.5 C 34.4863,11.6737 33.153,12.3404 31.5,12.5C 32.287,10.8958 33.6203,10.2291 35.5,10.5 Z"/></g>
<g><path style="opacity:0.71" fill="#173627" d="M 76.5,10.5 C 76.0269,11.9063 75.0269,12.573 73.5,12.5C 73.9731,11.0937 74.9731,10.427 76.5,10.5 Z"/></g>
<g><path style="opacity:0.847" fill="#183728" d="M 48.5,12.5 C 51.0892,13.4194 53.0892,15.086 54.5,17.5C 51.9108,16.5806 49.9108,14.914 48.5,12.5 Z"/></g>
<g><path style="opacity:0.408" fill="#0e2119" d="M 97.5,11.5 C 99.0269,11.427 100.027,12.0937 100.5,13.5C 98.9731,13.573 97.9731,12.9063 97.5,11.5 Z"/></g>
<g><path style="opacity:0.035" fill="#06100b" d="M 82.5,12.5 C 81.4154,14.5869 79.7488,15.9202 77.5,16.5C 78.5846,14.4131 80.2512,13.0798 82.5,12.5 Z"/></g>
<g><path style="opacity:0.078" fill="#0e1b14" d="M 102.5,15.5 C 103.906,15.9731 104.573,16.9731 104.5,18.5C 103.094,18.0269 102.427,17.0269 102.5,15.5 Z"/></g>
<g><path style="opacity:0.188" fill="#0d1913" d="M 77.5,16.5 C 76.713,18.1042 75.3797,18.7709 73.5,18.5C 74.5137,17.3263 75.847,16.6596 77.5,16.5 Z"/></g>
<g><path style="opacity:0.816" fill="#193c2b" d="M 24.5,11.5 C 22.6816,14.9735 20.6816,18.3069 18.5,21.5C 18.9769,17.2066 20.9769,13.8733 24.5,11.5 Z"/></g>
<g><path style="opacity:1" fill="#3dac7a" d="M 38.5,19.5 C 39.5,19.5 40.5,19.5 41.5,19.5C 46.1117,24.5165 47.7783,30.5165 46.5,37.5C 45.7659,38.7079 45.4326,40.0413 45.5,41.5C 45.5,42.1667 45.1667,42.5 44.5,42.5C 43.5,42.8333 42.8333,43.5 42.5,44.5C 40.8333,45.8333 39.1667,45.8333 37.5,44.5C 36.8333,43.1667 35.8333,42.1667 34.5,41.5C 33.5784,36.5276 33.4117,31.5276 34,26.5C 34.9042,23.7666 36.4042,21.4333 38.5,19.5 Z M 38.5,28.5 C 39.8333,31.1667 39.8333,33.8333 38.5,36.5C 37.2521,35.6661 36.5854,34.3328 36.5,32.5C 36.5854,30.6672 37.2521,29.3339 38.5,28.5 Z"/></g>
<g><path style="opacity:1" fill="#3ca878" d="M 92.5,19.5 C 97.2739,24.5231 98.7739,30.5231 97,37.5C 96.3471,40.1392 95.1804,42.4726 93.5,44.5C 89.9192,46.2395 87.2525,45.2395 85.5,41.5C 84.8005,37.2022 84.4672,32.8689 84.5,28.5C 84.5,27.8333 84.5,27.1667 84.5,26.5C 86.0075,24.8185 87.0075,22.8185 87.5,20.5C 88.9187,19.5489 90.5853,19.2155 92.5,19.5 Z M 94.5,36.5 C 94.8134,33.7531 94.48,31.0865 93.5,28.5C 90.6495,31.723 90.9828,34.3897 94.5,36.5 Z"/></g>
<g><path style="opacity:0.459" fill="#0f1f17" d="M 104.5,18.5 C 106.655,20.6174 107.655,23.284 107.5,26.5C 106.129,24.064 105.129,21.3973 104.5,18.5 Z"/></g>
<g><path style="opacity:0.922" fill="#256447" d="M 87.5,20.5 C 87.0075,22.8185 86.0075,24.8185 84.5,26.5C 84.5,25.8333 84.5,25.1667 84.5,24.5C 84.7376,22.5956 85.7376,21.2623 87.5,20.5 Z"/></g>
<g><path style="opacity:0.204" fill="#12261c" d="M 41.5,19.5 C 44.9078,20.5778 46.9078,22.9111 47.5,26.5C 47.815,30.3714 47.4816,34.0381 46.5,37.5C 47.7783,30.5165 46.1117,24.5165 41.5,19.5 Z"/></g>
<g><path style="opacity:0.104" fill="#08130e" d="M 101.5,7.5 C 106.15,9.98491 109.65,13.6516 112,18.5C 113.81,25.7401 115.144,33.0734 116,40.5C 124.165,51.2995 124.499,62.2995 117,73.5C 115.223,75.7899 113.056,77.4566 110.5,78.5C 122.522,66.578 123.689,53.578 114,39.5C 114.836,26.7417 110.669,16.0751 101.5,7.5 Z"/></g>
<g><path style="opacity:0.066" fill="#0a1610" d="M 38.5,28.5 C 37.2521,29.3339 36.5854,30.6672 36.5,32.5C 36.5854,34.3328 37.2521,35.6661 38.5,36.5C 37.6136,37.7759 36.6136,37.7759 35.5,36.5C 34.2054,33.6341 34.2054,30.8007 35.5,28C 36.7494,27.2599 37.7494,27.4265 38.5,28.5 Z"/></g>
<g><path style="opacity:0.694" fill="#1b4733" d="M 38.5,28.5 C 39.9931,29.3121 40.6598,30.6455 40.5,32.5C 40.6598,34.3545 39.9931,35.6879 38.5,36.5C 39.8333,33.8333 39.8333,31.1667 38.5,28.5 Z"/></g>
<g><path style="opacity:0.088" fill="#0b1711" d="M 94.5,36.5 C 93.6136,37.7759 92.6136,37.7759 91.5,36.5C 90.2054,33.6341 90.2054,30.8007 91.5,28C 92.7932,27.51 94.1266,27.3433 95.5,27.5C 95.81,30.7131 95.4767,33.7131 94.5,36.5 Z M 94.5,36.5 C 94.8134,33.7531 94.48,31.0865 93.5,28.5C 90.6495,31.723 90.9828,34.3897 94.5,36.5 Z"/></g>
<g><path style="opacity:0.839" fill="#1c4431" d="M 38.5,19.5 C 36.4042,21.4333 34.9042,23.7666 34,26.5C 33.4117,31.5276 33.5784,36.5276 34.5,41.5C 30.691,35.4176 30.5244,29.0843 34,22.5C 35.129,20.8588 36.629,19.8588 38.5,19.5 Z"/></g>
<g><path style="opacity:0.498" fill="#0f2018" d="M 84.5,24.5 C 84.5,25.1667 84.5,25.8333 84.5,26.5C 84.5,27.1667 84.5,27.8333 84.5,28.5C 83.5233,31.2869 83.19,34.2869 83.5,37.5C 82.8401,36.036 82.5068,34.3693 82.5,32.5C 82.3817,29.5143 83.0483,26.8476 84.5,24.5 Z"/></g>
<g><path style="opacity:0.914" fill="#286e4e" d="M 84.5,28.5 C 84.4672,32.8689 84.8005,37.2022 85.5,41.5C 83.8958,40.713 83.2291,39.3797 83.5,37.5C 83.19,34.2869 83.5233,31.2869 84.5,28.5 Z"/></g>
<g><path style="opacity:0.104" fill="#030a07" d="M 47.5,26.5 C 48.6453,30.3112 48.8119,34.3112 48,38.5C 47.6232,39.9423 46.7899,40.9423 45.5,41.5C 45.4326,40.0413 45.7659,38.7079 46.5,37.5C 47.4816,34.0381 47.815,30.3714 47.5,26.5 Z"/></g>
<g><path style="opacity:0.714" fill="#1a422f" d="M 18.5,21.5 C 17.9242,27.4853 17.4242,33.4853 17,39.5C 16.7645,41.1193 15.9311,42.1193 14.5,42.5C 15.6667,35.3385 17,28.3385 18.5,21.5 Z"/></g>
<g><path style="opacity:0.086" fill="#0b1711" d="M 92.5,19.5 C 94.371,19.8588 95.871,20.8588 97,22.5C 100.58,29.6949 100.247,36.6949 96,43.5C 95.3292,44.2524 94.4959,44.5858 93.5,44.5C 95.1804,42.4726 96.3471,40.1392 97,37.5C 98.7739,30.5231 97.2739,24.5231 92.5,19.5 Z"/></g>
<g><path style="opacity:0.127" fill="#0c1812" d="M 31.5,12.5 C 24.7885,19.8025 21.9551,28.4691 23,38.5C 20.0206,44.477 17.5206,50.6437 15.5,57C 16.0026,62.824 18.0026,67.9907 21.5,72.5C 14.9342,67.0014 12.7675,60.0014 15,51.5C 17.5272,47.7789 19.5272,43.7789 21,39.5C 20.08,30.171 22.4133,21.8377 28,14.5C 28.8159,13.1772 29.9826,12.5106 31.5,12.5 Z"/></g>
<g><path style="opacity:0.106" fill="#0d1a13" d="M 34.5,41.5 C 35.8333,42.1667 36.8333,43.1667 37.5,44.5C 35.5,44.5 34.5,43.5 34.5,41.5 Z"/></g>
<g><path style="opacity:0.039" fill="#020705" d="M 44.5,42.5 C 44.5,43.8333 43.8333,44.5 42.5,44.5C 42.8333,43.5 43.5,42.8333 44.5,42.5 Z"/></g>
<g><path style="opacity:0.494" fill="#11291e" d="M 14.5,42.5 C 14.573,44.0269 13.9063,45.0269 12.5,45.5C 12.427,43.9731 13.0937,42.9731 14.5,42.5 Z"/></g>
<g><path style="opacity:0.29" fill="#0e1b14" d="M 111.5,45.5 C 112.906,45.9731 113.573,46.9731 113.5,48.5C 112.094,48.0269 111.427,47.0269 111.5,45.5 Z"/></g>
<g><path style="opacity:1" fill="#3ba273" d="M 58.5,62.5 C 57.1667,63.8333 55.8333,63.8333 54.5,62.5C 52.1515,57.1052 53.6515,55.1052 59,56.5C 59.6776,58.5976 59.5109,60.5976 58.5,62.5 Z"/></g>
<g><path style="opacity:1" fill="#3aa072" d="M 71.5,55.5 C 77.2473,54.8715 78.914,57.2048 76.5,62.5C 75.1667,63.8333 73.8333,63.8333 72.5,62.5C 71.6314,60.283 71.298,57.9496 71.5,55.5 Z"/></g>
<g><path style="opacity:0.561" fill="#183c2b" d="M 114.5,50.5 C 115.117,50.6107 115.617,50.944 116,51.5C 116.667,55.5 116.667,59.5 116,63.5C 115.617,64.056 115.117,64.3893 114.5,64.5C 115.704,59.8228 115.704,55.1561 114.5,50.5 Z"/></g>
<g><path style="opacity:0.843" fill="#1f4e38" d="M 12.5,45.5 C 10.4416,52.0829 10.1083,58.7495 11.5,65.5C 11.1667,65.5 10.8333,65.5 10.5,65.5C 7.57093,58.5237 8.23759,51.857 12.5,45.5 Z"/></g>
<g><path style="opacity:0.745" fill="#13281e" d="M 58.5,62.5 C 59.5109,60.5976 59.6776,58.5976 59,56.5C 53.6515,55.1052 52.1515,57.1052 54.5,62.5C 50.9435,60.6101 50.6102,58.1101 53.5,55C 59.4931,53.3317 61.9931,55.4983 61,61.5C 60.3292,62.2524 59.4959,62.5858 58.5,62.5 Z"/></g>
<g><path style="opacity:0.82" fill="#1c4331" d="M 71.5,55.5 C 71.298,57.9496 71.6314,60.283 72.5,62.5C 70.2776,62.4413 69.2776,61.2747 69.5,59C 69.3866,57.3009 70.0532,56.1342 71.5,55.5 Z"/></g>
<g><path style="opacity:0.459" fill="#07140e" d="M 71.5,55.5 C 75.5101,53.4542 78.1768,54.6209 79.5,59C 79.2926,60.9497 78.2926,62.1164 76.5,62.5C 78.914,57.2048 77.2473,54.8715 71.5,55.5 Z"/></g>
<g><path style="opacity:0.824" fill="#193e2d" d="M 43.5,55.5 C 43.2451,57.9674 42.2451,59.9674 40.5,61.5C 40.461,58.911 41.461,56.911 43.5,55.5 Z"/></g>
<g><path style="opacity:0.039" fill="#0c1913" d="M 83.5,55.5 C 83.6741,57.861 84.0074,60.1944 84.5,62.5C 82.466,60.3452 82.1326,58.0118 83.5,55.5 Z"/></g>
<g><path style="opacity:0.127" fill="#0c1812" d="M 43.5,55.5 C 44.8845,54.1991 46.3845,54.1991 48,55.5C 47.6302,60.1381 47.1302,64.8047 46.5,69.5C 45.0532,68.8658 44.3866,67.6991 44.5,66C 44.9164,63.0805 45.9164,60.4138 47.5,58C 46.9681,55.9803 45.6348,55.147 43.5,55.5 Z"/></g>
<g><path style="opacity:0.263" fill="#0e1c15" d="M 10.5,65.5 C 10.8333,65.5 11.1667,65.5 11.5,65.5C 12.1667,67.5 12.8333,69.5 13.5,71.5C 11.461,70.089 10.461,68.089 10.5,65.5 Z"/></g>
<g><path style="opacity:0.243" fill="#06100b" d="M 83.5,55.5 C 85.4888,54.1134 87.3221,54.4468 89,56.5C 90.7553,59.5999 91.5886,62.9332 91.5,66.5C 91.8802,71.1149 89.8802,74.1149 85.5,75.5C 91.1283,70.2676 91.9617,64.2676 88,57.5C 86.8904,55.9632 85.3904,55.2965 83.5,55.5 Z"/></g>
<g><path style="opacity:0.059" fill="#14271e" d="M 69.5,71.5 C 67.9557,71.2969 66.6223,70.6302 65.5,69.5C 63.422,71.9864 60.7553,72.9864 57.5,72.5C 60.3499,71.6789 63.0165,70.3456 65.5,68.5C 67.4172,68.7538 68.7505,69.7538 69.5,71.5 Z"/></g>
<g><path style="opacity:0.765" fill="#1e4c37" d="M 114.5,64.5 C 114.657,65.8734 114.49,67.2068 114,68.5C 112.02,70.8987 109.853,72.8987 107.5,74.5C 109.866,71.1434 112.199,67.8101 114.5,64.5 Z"/></g>
<g><path style="opacity:0.082" fill="#112019" d="M 46.5,69.5 C 47.7095,69.9321 48.7095,70.5987 49.5,71.5C 47.8212,71.7148 46.8212,71.0481 46.5,69.5 Z"/></g>
<g><path style="opacity:0.941" fill="#1e4b36" d="M 83.5,70.5 C 82.0101,72.2798 80.0101,72.9465 77.5,72.5C 79.3024,71.5418 81.3024,70.8751 83.5,70.5 Z"/></g>
<g><path style="opacity:0.059" fill="#0b1812" d="M 13.5,71.5 C 14.9063,71.9731 15.573,72.9731 15.5,74.5C 14.0937,74.0269 13.427,73.0269 13.5,71.5 Z"/></g>
<g><path style="opacity:0.773" fill="#183728" d="M 15.5,74.5 C 17.7488,75.0798 19.4154,76.4131 20.5,78.5C 18.2512,77.9202 16.5846,76.5869 15.5,74.5 Z"/></g>
<g><path style="opacity:0.024" fill="#0c1812" d="M 23.5,74.5 C 25.4044,74.7376 26.7377,75.7376 27.5,77.5C 25.5956,77.2624 24.2623,76.2624 23.5,74.5 Z"/></g>
<g><path style="opacity:0.824" fill="#1f4f39" d="M 107.5,74.5 C 106.738,76.2624 105.404,77.2624 103.5,77.5C 104.262,75.7376 105.596,74.7376 107.5,74.5 Z"/></g>
<g><path style="opacity:0.118" fill="#06130d" d="M 77.5,78.5 C 75.8333,78.5 74.1667,78.5 72.5,78.5C 72.3367,80.8568 72.5034,83.1902 73,85.5C 74.6995,86.4061 76.5328,86.7394 78.5,86.5C 76.3926,87.4682 74.0593,87.8016 71.5,87.5C 71.5405,84.1194 71.2071,80.7861 70.5,77.5C 73.0593,77.1984 75.3926,77.5318 77.5,78.5 Z"/></g>
<g><path style="opacity:0.075" fill="#050d09" d="M 29.5,78.5 C 31.674,78.7497 33.3406,79.7497 34.5,81.5C 32.326,81.2503 30.6594,80.2503 29.5,78.5 Z"/></g>
<g><path style="opacity:0.106" fill="#0f1d16" d="M 83.5,76.5 C 83.0639,78.7463 82.3972,80.9129 81.5,83C 79.8459,83.1961 78.8459,82.3628 78.5,80.5C 80.48,79.5264 82.1467,78.193 83.5,76.5 Z"/></g>
<g><path style="opacity:0.706" fill="#153023" d="M 101.5,78.5 C 101.027,79.9063 100.027,80.573 98.5,80.5C 98.9731,79.0937 99.9731,78.427 101.5,78.5 Z"/></g>
<g><path style="opacity:0.173" fill="#11231a" d="M 47.5,76.5 C 49.0931,77.3479 50.2597,78.6813 51,80.5C 53.1945,77.9629 56.0279,76.9629 59.5,77.5C 59.5,80.8333 59.5,84.1667 59.5,87.5C 56.2869,87.81 53.2869,87.4767 50.5,86.5C 57.5,88.1667 60.1667,85.5 58.5,78.5C 56.712,78.2148 55.0453,78.5481 53.5,79.5C 52.5,80.8333 51.5,82.1667 50.5,83.5C 48.7556,81.5736 47.7556,79.2403 47.5,76.5 Z"/></g>
<g><path style="opacity:0.537" fill="#163527" d="M 22.5,80.5 C 24.0269,80.427 25.0269,81.0937 25.5,82.5C 23.9731,82.573 22.9731,81.9063 22.5,80.5 Z"/></g>
<g><path style="opacity:0.063" fill="#07120d" d="M 108.5,80.5 C 108.027,81.9063 107.027,82.573 105.5,82.5C 105.973,81.0937 106.973,80.427 108.5,80.5 Z"/></g>
<g><path style="opacity:0.435" fill="#10261c" d="M 25.5,82.5 C 27.0269,82.427 28.0269,83.0937 28.5,84.5C 26.9731,84.573 25.9731,83.9063 25.5,82.5 Z"/></g>
<g><path style="opacity:0.384" fill="#0f1f17" d="M 37.5,82.5 C 40.7846,82.9281 43.7846,83.9281 46.5,85.5C 43.0836,85.4725 40.0836,84.4725 37.5,82.5 Z"/></g>
<g><path style="opacity:0.031" fill="#040c07" d="M 105.5,82.5 C 105.027,83.9063 104.027,84.573 102.5,84.5C 102.973,83.0937 103.973,82.427 105.5,82.5 Z"/></g>
<g><path style="opacity:0.902" fill="#1f4d37" d="M 89.5,84.5 C 86.7814,85.913 83.7814,86.5797 80.5,86.5C 83.2186,85.087 86.2186,84.4203 89.5,84.5 Z"/></g>
<g><path style="opacity:0.937" fill="#1f4e38" d="M 34.5,87.5 C 36.698,87.1201 38.3646,87.7868 39.5,89.5C 37.597,89.2041 35.9303,88.5375 34.5,87.5 Z"/></g>
<g><path style="opacity:0.065" fill="#0b1711" d="M 95.5,87.5 C 92.9164,89.4725 89.9164,90.4725 86.5,90.5C 89.2154,88.9281 92.2154,87.9281 95.5,87.5 Z"/></g>
<g><path style="opacity:0.675" fill="#142e22" d="M 55.5,92.5 C 56.7647,93.5145 57.4313,95.0145 57.5,97C 57.4915,98.7067 57.1582,100.207 56.5,101.5C 56.7359,98.3915 56.4025,95.3915 55.5,92.5 Z"/></g>
<g><path style="opacity:0.09" fill="#08130e" d="M 66.5,109.5 C 64.8333,110.167 63.1667,110.833 61.5,111.5C 62.5905,108.808 64.2572,108.142 66.5,109.5 Z"/></g>
<g><path style="opacity:0.095" fill="#0b1611" d="M 75.5,92.5 C 74.9094,93.1515 74.2427,93.8182 73.5,94.5C 75.3995,101.777 76.0662,109.11 75.5,116.5C 74.4777,116.145 73.811,115.478 73.5,114.5C 74.1386,113.903 74.472,113.07 74.5,112C 73.6229,105.518 72.9562,99.0183 72.5,92.5C 73.5,92.5 74.5,92.5 75.5,92.5 Z"/></g>
<g><path style="opacity:0.596" fill="#163527" d="M 66.5,109.5 C 68.0269,109.427 69.0269,110.094 69.5,111.5C 67.9731,111.573 66.9731,110.906 66.5,109.5 Z"/></g>
<g><path style="opacity:0.886" fill="#1f4f38" d="M 69.5,111.5 C 71.4044,111.738 72.7377,112.738 73.5,114.5C 71.5956,114.262 70.2623,113.262 69.5,111.5 Z"/></g>
<g><path style="opacity:0.075" fill="#07120d" d="M 61.5,111.5 C 60.7377,113.262 59.4044,114.262 57.5,114.5C 58.2623,112.738 59.5956,111.738 61.5,111.5 Z"/></g>
<g><path style="opacity:0.361" fill="#07140e" d="M 55.5,109.5 C 55.0773,111.781 55.744,113.448 57.5,114.5C 57.189,115.478 56.5223,116.145 55.5,116.5C 54.2031,114.027 54.2031,111.693 55.5,109.5 Z"/></g>
</svg>
